<svg width="218" height="29" viewBox="0 0 218 29" fill="none" xmlns="http://www.w3.org/2000/svg">
<path d="M24.401 26.51C24.808 26.917 24.808 27.62 24.401 28.027C24.179 28.249 23.92 28.36 23.624 28.36C23.365 28.36 23.069 28.249 22.847 28.027C20.146 25.326 16.52 23.846 12.672 23.846C8.861 23.846 5.235 25.326 2.497 28.027C2.09 28.471 1.387 28.471 0.98 28.027C0.573 27.62 0.573 26.917 0.98 26.51C4.125 23.402 8.269 21.663 12.672 21.663C17.112 21.663 21.256 23.402 24.401 26.51ZM3.94 19.85C3.94 19.813 3.94 19.776 3.94 19.776C3.94 19.702 3.903 19.665 3.903 19.628C3.903 19.591 3.94 19.517 3.94 19.48C3.94 19.443 3.94 19.443 3.94 19.406C3.94 19.332 3.977 19.295 4.014 19.221L11.673 1.202C11.858 0.831998 12.265 0.572999 12.672 0.572999C13.116 0.572999 13.523 0.831998 13.671 1.202L21.367 19.221C21.404 19.295 21.404 19.332 21.441 19.406C21.441 19.443 21.441 19.443 21.441 19.48C21.441 19.517 21.441 19.591 21.441 19.628C21.441 19.665 21.441 19.702 21.441 19.739C21.441 19.776 21.441 19.813 21.441 19.85C21.404 19.924 21.404 19.961 21.367 20.035V20.072C21.33 20.146 21.293 20.22 21.219 20.294C21.219 20.331 21.182 20.331 21.182 20.331C21.108 20.405 21.034 20.479 20.96 20.553C20.96 20.553 20.96 20.553 20.923 20.553C20.886 20.59 20.849 20.627 20.775 20.627C20.775 20.627 20.738 20.664 20.701 20.664C20.701 20.664 20.664 20.664 20.627 20.664C20.553 20.701 20.442 20.738 20.368 20.738C20.257 20.738 20.183 20.701 20.109 20.664C20.072 20.664 20.035 20.664 20.035 20.664C19.998 20.664 19.961 20.664 19.961 20.627C17.63 19.702 15.188 19.221 12.672 19.221C10.156 19.221 7.714 19.702 5.42 20.627C5.346 20.664 5.272 20.701 5.198 20.701C5.124 20.701 5.05 20.738 5.013 20.738C4.939 20.738 4.902 20.701 4.865 20.701C4.828 20.701 4.828 20.701 4.791 20.701C4.717 20.701 4.643 20.664 4.569 20.627C4.569 20.627 4.532 20.627 4.532 20.59C4.495 20.59 4.421 20.553 4.384 20.516C4.384 20.516 4.347 20.479 4.31 20.479C4.273 20.442 4.273 20.442 4.236 20.405C4.199 20.368 4.199 20.331 4.162 20.331C4.125 20.294 4.125 20.257 4.088 20.22C4.088 20.183 4.051 20.146 4.051 20.109C4.014 20.072 4.014 20.072 4.014 20.035C3.977 19.998 3.94 19.924 3.94 19.85ZM12.672 4.421L6.974 17.815C8.824 17.297 10.711 17.038 12.672 17.038C14.633 17.038 16.557 17.297 18.407 17.815L12.672 4.421ZM50.0732 26.177C50.6652 26.177 51.1462 26.658 51.1462 27.25C51.1462 27.879 50.6652 28.36 50.0732 28.36H28.2062C27.6142 28.36 27.1332 27.879 27.1332 27.25V16.779C27.1332 16.187 27.6142 15.706 28.2062 15.706H42.2662V12.117C42.2662 11.525 42.7472 11.044 43.3392 11.044C43.9312 11.044 44.4122 11.525 44.4122 12.117V16.779C44.4122 17.371 43.9312 17.852 43.3392 17.852H29.2792V26.177H50.0732ZM28.2062 13.227C27.6142 13.227 27.1332 12.746 27.1332 12.117V1.646C27.1332 1.054 27.6142 0.535998 28.2062 0.535998H50.0732C50.6652 0.535998 51.1462 1.054 51.1462 1.646C51.1462 2.238 50.6652 2.719 50.0732 2.719H29.2792V12.117C29.2792 12.746 28.7982 13.227 28.2062 13.227ZM93.1724 1.646C93.1724 2.238 92.6914 2.719 92.0994 2.719H66.6804V27.287C66.6804 27.879 66.1994 28.36 65.5704 28.36C64.9784 28.36 64.4974 27.879 64.4974 27.287V2.719H54.6554C54.0634 2.719 53.5824 2.238 53.5824 1.646C53.5824 1.054 54.0634 0.572999 54.6554 0.572999H92.0994C92.6914 0.572999 93.1724 1.054 93.1724 1.646ZM92.0994 26.177C92.6914 26.177 93.1724 26.658 93.1724 27.287C93.1724 27.879 92.6914 28.36 92.0994 28.36H70.2324C69.6404 28.36 69.1224 27.879 69.1224 27.287V16.779C69.1224 16.187 69.6404 15.706 70.2324 15.706H84.2554V12.117C84.2554 11.525 84.7734 11.044 85.3654 11.044C85.9574 11.044 86.4384 11.525 86.4384 12.117V16.779C86.4384 17.371 85.9574 17.852 85.3654 17.852H71.3054V26.177H92.0994ZM69.1224 6.271C69.1224 5.679 69.6404 5.198 70.2324 5.198C70.8244 5.198 71.3054 5.679 71.3054 6.271V12.117C71.3054 12.746 70.8244 13.227 70.2324 13.227C69.6404 13.227 69.1224 12.746 69.1224 12.117V6.271ZM97.4919 8.084L113.291 26.547C113.661 27.028 113.624 27.694 113.143 28.101C112.958 28.286 112.699 28.36 112.44 28.36C112.144 28.36 111.848 28.212 111.626 27.99L97.7509 11.71V27.25C97.7509 27.879 97.2699 28.36 96.6779 28.36C96.0859 28.36 95.6049 27.879 95.6049 27.25V8.787V8.75C95.6049 8.713 95.6049 8.676 95.6049 8.639C95.6049 8.602 95.6049 8.565 95.6049 8.528C95.6419 8.491 95.6419 8.454 95.6419 8.417C95.6789 8.38 95.6789 8.38 95.6789 8.343C95.7159 8.306 95.7159 8.269 95.7529 8.232C95.7529 8.195 95.7899 8.195 95.7899 8.158C95.8269 8.121 95.8269 8.084 95.8639 8.084C95.9009 8.047 95.9009 8.01 95.9379 7.973H95.9749C95.9749 7.936 96.0119 7.936 96.0119 7.936C96.0489 7.899 96.0859 7.862 96.1229 7.862C96.1229 7.825 96.1599 7.825 96.1969 7.825C96.2339 7.788 96.2709 7.788 96.3079 7.751C96.3449 7.751 96.3819 7.751 96.4189 7.751C96.4189 7.714 96.4559 7.714 96.4929 7.714C96.5299 7.714 96.5669 7.714 96.6039 7.714C96.6409 7.714 96.6409 7.714 96.6779 7.714H96.7149C96.7519 7.714 96.7889 7.714 96.8259 7.714C96.8629 7.714 96.8999 7.714 96.9369 7.714C96.9739 7.751 97.0109 7.751 97.0109 7.751C97.0479 7.788 97.0849 7.788 97.1219 7.788C97.1589 7.825 97.1959 7.825 97.2329 7.862C97.2329 7.862 97.2699 7.899 97.3069 7.899C97.3439 7.936 97.3439 7.936 97.3809 7.973C97.4179 8.01 97.4549 8.01 97.4549 8.047C97.4919 8.047 97.4919 8.084 97.4919 8.084ZM113.106 19.221L119.359 26.547C119.766 27.028 119.692 27.694 119.248 28.101C119.063 28.286 118.804 28.36 118.545 28.36C118.249 28.36 117.953 28.212 117.731 27.99L95.8639 2.349C95.8269 2.312 95.8269 2.312 95.8269 2.275C95.7899 2.275 95.7529 2.238 95.7529 2.201C95.7159 2.164 95.7159 2.127 95.6789 2.09C95.6789 2.09 95.6789 2.053 95.6419 2.016C95.6419 1.979 95.6419 1.942 95.6049 1.905C95.6049 1.868 95.6049 1.831 95.6049 1.831C95.6049 1.757 95.6049 1.72 95.6049 1.683V1.646V1.609C95.6049 1.572 95.6049 1.535 95.6049 1.461C95.6049 1.461 95.6049 1.424 95.6049 1.387C95.6419 1.35 95.6419 1.313 95.6419 1.276C95.6789 1.239 95.6789 1.202 95.6789 1.202C95.7159 1.165 95.7159 1.128 95.7529 1.091C95.7529 1.054 95.7899 1.017 95.7899 1.017C95.8269 0.979999 95.8269 0.942999 95.8639 0.906C95.9009 0.906 95.9009 0.868998 95.9379 0.831998C95.9379 0.831998 95.9379 0.831998 95.9749 0.831998C95.9749 0.794999 96.0119 0.794999 96.0119 0.794999C96.0489 0.757999 96.0859 0.721 96.1229 0.721C96.1229 0.683998 96.1599 0.683998 96.1969 0.683998C96.2339 0.646998 96.2709 0.646998 96.3079 0.609999C96.3449 0.609999 96.3819 0.609999 96.4189 0.609999C96.4189 0.572999 96.4559 0.572999 96.4929 0.572999C96.5299 0.572999 96.5669 0.572999 96.6039 0.572999C96.6409 0.572999 96.6409 0.572999 96.6779 0.572999H110.035C115.326 0.572999 119.618 4.865 119.618 10.156C119.618 14.3 116.917 17.926 113.106 19.221ZM99.0089 2.719L111.552 17.408C114.956 16.705 117.472 13.671 117.472 10.156C117.472 6.049 114.142 2.719 110.035 2.719H99.0089ZM144.994 0.535998C145.586 0.535998 146.067 1.054 146.067 1.646V27.287C146.067 27.731 145.808 28.138 145.364 28.286C145.253 28.323 145.105 28.36 144.994 28.36C144.698 28.36 144.365 28.212 144.18 27.99L122.313 2.349C121.906 1.905 121.943 1.202 122.424 0.831998C122.868 0.424999 123.571 0.461999 123.941 0.942999L143.921 24.327V1.646C143.921 1.054 144.402 0.535998 144.994 0.535998ZM123.941 8.084L139.74 26.547C140.11 27.028 140.073 27.694 139.592 28.101C139.407 28.286 139.148 28.36 138.889 28.36C138.593 28.36 138.297 28.212 138.075 27.99L124.2 11.71V27.25C124.2 27.879 123.719 28.36 123.127 28.36C122.535 28.36 122.054 27.879 122.054 27.25V8.787C122.054 8.343 122.313 7.936 122.757 7.751C123.164 7.603 123.645 7.714 123.941 8.084ZM149.576 0.572999C150.168 0.572999 150.649 1.054 150.649 1.646V27.25C150.649 27.879 150.168 28.36 149.576 28.36C148.984 28.36 148.503 27.879 148.503 27.25V1.646C148.503 1.054 148.984 0.572999 149.576 0.572999ZM176.032 0.572999C176.624 0.572999 177.105 1.054 177.105 1.646C177.105 2.238 176.624 2.719 176.032 2.719H166.19V27.25C166.19 27.879 165.709 28.36 165.08 28.36C164.488 28.36 164.007 27.879 164.007 27.25V2.719H154.165C153.573 2.719 153.092 2.238 153.092 1.646C153.092 1.054 153.573 0.572999 154.165 0.572999H176.032ZM192.527 26.51C192.934 26.917 192.934 27.62 192.527 28.027C192.305 28.249 192.046 28.36 191.75 28.36C191.491 28.36 191.195 28.249 190.973 28.027C188.272 25.326 184.646 23.846 180.798 23.846C176.987 23.846 173.361 25.326 170.623 28.027C170.216 28.471 169.513 28.471 169.106 28.027C168.699 27.62 168.699 26.917 169.106 26.51C172.251 23.402 176.395 21.663 180.798 21.663C185.238 21.663 189.382 23.402 192.527 26.51ZM172.066 19.85C172.066 19.813 172.066 19.776 172.066 19.776C172.066 19.702 172.029 19.665 172.029 19.628C172.029 19.591 172.066 19.517 172.066 19.48C172.066 19.443 172.066 19.443 172.066 19.406C172.066 19.332 172.103 19.295 172.14 19.221L179.799 1.202C179.984 0.831998 180.391 0.572999 180.798 0.572999C181.242 0.572999 181.649 0.831998 181.797 1.202L189.493 19.221C189.53 19.295 189.53 19.332 189.567 19.406C189.567 19.443 189.567 19.443 189.567 19.48C189.567 19.517 189.567 19.591 189.567 19.628C189.567 19.665 189.567 19.702 189.567 19.739C189.567 19.776 189.567 19.813 189.567 19.85C189.53 19.924 189.53 19.961 189.493 20.035V20.072C189.456 20.146 189.419 20.22 189.345 20.294C189.345 20.331 189.308 20.331 189.308 20.331C189.234 20.405 189.16 20.479 189.086 20.553C189.086 20.553 189.086 20.553 189.049 20.553C189.012 20.59 188.975 20.627 188.901 20.627C188.901 20.627 188.864 20.664 188.827 20.664C188.827 20.664 188.79 20.664 188.753 20.664C188.679 20.701 188.568 20.738 188.494 20.738C188.383 20.738 188.309 20.701 188.235 20.664C188.198 20.664 188.161 20.664 188.161 20.664C188.124 20.664 188.087 20.664 188.087 20.627C185.756 19.702 183.314 19.221 180.798 19.221C178.282 19.221 175.84 19.702 173.546 20.627C173.472 20.664 173.398 20.701 173.324 20.701C173.25 20.701 173.176 20.738 173.139 20.738C173.065 20.738 173.028 20.701 172.991 20.701C172.954 20.701 172.954 20.701 172.917 20.701C172.843 20.701 172.769 20.664 172.695 20.627C172.695 20.627 172.658 20.627 172.658 20.59C172.621 20.59 172.547 20.553 172.51 20.516C172.51 20.516 172.473 20.479 172.436 20.479C172.399 20.442 172.399 20.442 172.362 20.405C172.325 20.368 172.325 20.331 172.288 20.331C172.251 20.294 172.251 20.257 172.214 20.22C172.214 20.183 172.177 20.146 172.177 20.109C172.14 20.072 172.14 20.072 172.14 20.035C172.103 19.998 172.066 19.924 172.066 19.85ZM180.798 4.421L175.1 17.815C176.95 17.297 178.837 17.038 180.798 17.038C182.759 17.038 184.683 17.297 186.533 17.815L180.798 4.421ZM212.878 15.447C215.653 16.335 217.503 18.851 217.503 21.774C217.503 25.4 214.58 28.36 210.917 28.36H200.002C196.339 28.36 193.416 25.4 193.416 21.774C193.416 21.145 193.897 20.664 194.489 20.664C195.081 20.664 195.562 21.145 195.562 21.774C195.562 24.216 197.56 26.177 200.002 26.177H210.917C213.359 26.177 215.357 24.216 215.357 21.774C215.357 19.813 214.099 18.111 212.249 17.556L198.041 13.449C195.266 12.561 193.416 10.045 193.416 7.159C193.416 3.496 196.339 0.572999 200.002 0.572999H210.917C214.58 0.572999 217.503 3.496 217.503 7.159C217.503 7.751 217.022 8.232 216.43 8.232C215.838 8.232 215.357 7.751 215.357 7.159C215.357 4.717 213.359 2.719 210.917 2.719H200.002C197.56 2.719 195.562 4.717 195.562 7.159C195.562 9.083 196.82 10.785 198.67 11.377L212.878 15.447Z" fill="white"/>
</svg>
