<svg width="21" height="21" viewBox="0 0 21 21" fill="none" xmlns="http://www.w3.org/2000/svg">
<path d="M10.5675 7.64C11.8475 7.7 12.1775 8.79 12.1975 9.3H13.9875C13.9075 7.32 12.4975 6.11 10.5375 6.11C8.3275 6.11 6.6875 7.5 6.6875 10.64C6.6875 12.58 7.6175 14.88 10.5275 14.88C12.7475 14.88 13.9375 13.23 13.9675 11.93H12.1775C12.1475 12.52 11.7275 13.31 10.5475 13.37C9.2375 13.33 8.6875 12.31 8.6875 10.64C8.6875 7.75 9.9675 7.66 10.5675 7.64ZM10.6875 0.5C5.1675 0.5 0.6875 4.98 0.6875 10.5C0.6875 16.02 5.1675 20.5 10.6875 20.5C16.2075 20.5 20.6875 16.02 20.6875 10.5C20.6875 4.98 16.2075 0.5 10.6875 0.5ZM10.6875 18.5C6.2775 18.5 2.6875 14.91 2.6875 10.5C2.6875 6.09 6.2775 2.5 10.6875 2.5C15.0975 2.5 18.6875 6.09 18.6875 10.5C18.6875 14.91 15.0975 18.5 10.6875 18.5Z" fill="white"/>
</svg>
